<?xml version="1.0" encoding="UTF-8"?>
<svg version="1.1" xmlns="http://www.w3.org/2000/svg" width="500" height="500">
<path d="M0 0 C4.40664302 2.63191282 8.09317888 5.73962852 11.6875 9.375 C12.46504639 10.15883057 12.46504639 10.15883057 13.25830078 10.95849609 C18.463157 16.31219821 23.00372479 22.10162246 27.5078125 28.04589844 C29.10078553 30.1319842 30.71905778 32.19634515 32.34375 34.2578125 C39.93085368 43.89671451 47.20025691 53.72343739 54.34375 63.69384766 C71.53091978 91.89597653 71.53091978 91.89597653 95.38208008 111.58227539 C109.61347283 113.67828441 124.0256512 113.96296629 138.37915039 114.60180664 C211.37403378 117.89922703 211.37403378 117.89922703 229 132 C232.99700682 136.53714288 234.37170465 139.16878877 234.2734375 145.3203125 C231.9231225 168.35339952 211.52454615 190.21146039 198.0078125 207.76953125 C191.87192924 215.74796405 185.92509381 223.86444522 180 232 C179.26910156 232.99644531 178.53820312 233.99289062 177.78515625 235.01953125 C176.13320938 237.314906 174.54660208 239.63266775 173 242 C172.42378906 242.86367188 171.84757812 243.72734375 171.25390625 244.6171875 C170.69574219 245.52726563 170.13757813 246.43734375 169.5625 247.375 C169.06878906 248.16648437 168.57507813 248.95796875 168.06640625 249.7734375 C165.07574051 258.82211844 167.39363026 268.42370167 169.5 277.4375 C170.04832907 279.89449733 170.5964974 282.35153055 171.14453125 284.80859375 C171.44434539 286.13275825 171.74465109 287.45681153 172.04541016 288.78076172 C184.15067793 342.15749072 184.15067793 342.15749072 184.4375 365 C184.46005859 366.20591797 184.48261719 367.41183594 184.50585938 368.65429688 C184.4834054 376.77814392 183.92752829 386.19873081 178.55249023 392.76953125 C173.46234907 396.80386235 165.12654307 395.64820509 159 395 C134.90837127 390.94426641 111.6239784 380.18750115 88.94555664 371.43652344 C66.49042478 361.11602361 66.49042478 361.11602361 43.203125 362.4296875 C42.14609375 362.94789063 41.0890625 363.46609375 40 364 C39.34708984 364.31485352 38.69417969 364.62970703 38.02148438 364.95410156 C26.47132234 370.58311007 15.6722833 377.23606115 4.89453125 384.20703125 C-10.7327305 394.30819231 -26.56110805 404.2617042 -43 413 C-43.66676758 413.35529785 -44.33353516 413.7105957 -45.02050781 414.07666016 C-69.38566146 426.94525726 -69.38566146 426.94525726 -80 425 C-84.87297745 423.1257779 -86.57539388 420.381418 -88.6875 415.8125 C-92.87714618 404.65353853 -94.02341524 392.96204833 -94.9921875 381.1640625 C-95.07763321 380.1307077 -95.16307892 379.09735291 -95.25111389 378.03268433 C-95.88183308 370.11356003 -96.34955305 362.19182697 -96.74609375 354.2578125 C-96.80401596 353.09971069 -96.86193817 351.94160889 -96.9216156 350.74841309 C-97.15522453 346.01194043 -97.3848056 341.2753509 -97.60180664 336.53808594 C-98.60576095 311.93792509 -98.60576095 311.93792509 -104 288 C-105.79597817 286.78898203 -105.79597817 286.78898203 -108 286 C-109.82846136 284.39514304 -111.61539182 282.74256425 -113.375 281.0625 C-118.1974577 276.53935186 -123.19843687 272.38294927 -128.4284668 268.3425293 C-135.44822761 262.90994473 -142.2613352 257.23063125 -149.09765625 251.5703125 C-151.61630964 249.4912598 -154.15188999 247.43331871 -156.6875 245.375 C-205.01692646 205.77980723 -205.01692646 205.77980723 -207.5625 189.375 C-206.61919878 183.7151927 -203.92241843 181.39866357 -199.4765625 178.1640625 C-178.83206582 164.73717905 -154.41327594 157.00231904 -131.33203125 148.8671875 C-130.28927032 148.49946228 -129.2465094 148.13173706 -128.17214966 147.75286865 C-122.92475667 145.90459602 -117.67440198 144.06545252 -112.41894531 142.24023438 C-102.98249844 138.94908036 -93.59271684 135.56995661 -84.33984375 131.7890625 C-83.56620987 131.48173187 -82.79257599 131.17440125 -81.99549866 130.85775757 C-76.20176197 128.42814045 -71.60071005 125.28698275 -69.0703125 119.2890625 C-68.75795654 118.55929199 -68.44560059 117.82952148 -68.1237793 117.07763672 C-67.62938354 115.86358154 -67.62938354 115.86358154 -67.125 114.625 C-66.75479736 113.74215332 -66.38459473 112.85930664 -66.00317383 111.94970703 C-62.37696441 103.17776128 -59.03707573 94.29389067 -55.65869141 85.42456055 C-55.33819824 84.58320557 -55.01770508 83.74185059 -54.6875 82.875 C-54.36555664 82.02977783 -54.04361328 81.18455566 -53.71191406 80.3137207 C-27.49936197 11.62033682 -27.49936197 11.62033682 -9.09375 0.89453125 C-5.79852865 -0.51331519 -3.50960436 -0.6621895 0 0 Z " fill="#3B6A52" transform="translate(233,33)"/>
<path d="M0 0 C3.70390021 2.02666238 5.65363011 3.48044516 8 7 C8.37109375 9.0859375 8.37109375 9.0859375 8.4375 11.375 C8.49744141 12.50035156 8.49744141 12.50035156 8.55859375 13.6484375 C7.71681765 17.19213829 5.70352988 18.60293491 3 21 C0.563278 22.39340587 -1.78815552 23.63167225 -4.3203125 24.8125 C-5.01961884 25.14870361 -5.71892517 25.48490723 -6.43942261 25.83129883 C-8.66336497 26.89745939 -10.89395865 27.94878979 -13.125 29 C-14.59940958 29.70478593 -16.07337225 30.41050761 -17.546875 31.1171875 C-21.68839837 33.09862528 -25.84212299 35.05316461 -30 37 C-31.11375 37.52440674 -32.2275 38.04881348 -33.375 38.58911133 C-34.34695312 39.0405249 -35.31890625 39.49193848 -36.3203125 39.95703125 C-37.14547363 40.34093018 -37.97063477 40.7248291 -38.82080078 41.12036133 C-42.18551839 42.47853717 -44.44539556 42.75193555 -48 42 C-51.25858083 39.84724279 -54.23463308 37.53073384 -56 34 C-56.55910987 28.31571627 -56.55910987 28.31571627 -56 26 C-52.41869445 21.8629601 -48.57339491 19.46959608 -43.6796875 17.1875 C-42.630728 16.68319458 -42.630728 16.68319458 -41.56057739 16.16870117 C-39.33663503 15.10254061 -37.10604135 14.05121021 -34.875 13 C-33.40059042 12.29521407 -31.92662775 11.58949239 -30.453125 10.8828125 C-26.94277604 9.20328797 -23.42467847 7.54111161 -19.90060425 5.89059448 C-18.14112548 5.06612927 -16.38405313 4.23653382 -14.62719727 3.40649414 C-13.65580811 2.95395264 -12.68441895 2.50141113 -11.68359375 2.03515625 C-10.85915771 1.64980713 -10.03472168 1.26445801 -9.18530273 0.86743164 C-5.90725829 -0.43375168 -3.46092649 -0.61075173 0 0 Z " fill="#84B69D" transform="translate(193,178)"/>
<path d="M0 0 C4.00062907 2.11353989 6.36012612 3.77648211 8 8 C8.2669275 14.90210596 5.90517989 22.0118005 4.1875 28.625 C3.91687744 29.6759082 3.64625488 30.72681641 3.36743164 31.80957031 C2.82697846 33.9057761 2.28462689 36.0014935 1.74023438 38.09667969 C1.09069814 40.64426707 0.47925053 43.19562554 -0.109375 45.7578125 C-0.35530396 46.78720947 -0.35530396 46.78720947 -0.60620117 47.83740234 C-1.02987199 49.61323819 -1.43936147 51.39244102 -1.84765625 53.171875 C-3.27320755 56.67051616 -4.81868491 58.01167807 -8 60 C-12.91336509 60.62391938 -14.9727839 60.53263057 -19.375 58.25 C-23.16666667 55 -23.16666667 55 -24 52 C-24.3273771 45.51065842 -23.31470911 39.79988944 -21.8125 33.5 C-21.58691406 32.54037354 -21.36132812 31.58074707 -21.12890625 30.59204102 C-19.70944734 24.67319309 -18.21740101 18.77735734 -16.5 12.9375 C-15.95859375 11.09478516 -15.95859375 11.09478516 -15.40625 9.21484375 C-12.17560037 1.82921973 -7.79303739 -0.64941978 0 0 Z " fill="#84B69D" transform="translate(219,100)"/>
<path d="M0 0 C3.21840301 2.54790239 5.73534937 4.79168569 6.23828125 8.98828125 C6.26277344 9.75527344 6.28726563 10.52226562 6.3125 11.3125 C6.36857422 12.45138672 6.36857422 12.45138672 6.42578125 13.61328125 C5.79905547 17.12639551 4.59511365 18.54042224 2 21 C-0.90989286 22.40235362 -3.90815217 23.33133595 -7 24.25 C-7.80695313 24.50523437 -8.61390625 24.76046875 -9.4453125 25.0234375 C-21.77910047 28.89046673 -21.77910047 28.89046673 -28 28 C-31.97234329 25.6684072 -33.833968 23.45212218 -35 19 C-35.4691709 15.32482793 -35.12724694 13.3029689 -33.6875 9.875 C-29.76217314 5.67581313 -25.42434528 4.58709712 -20 3 C-19.06027344 2.69964844 -18.12054688 2.39929688 -17.15234375 2.08984375 C-11.6045565 0.41224282 -5.79270803 -1.27951382 0 0 Z " fill="#84B69D" transform="translate(112,210)"/>
</svg>
